<svg width="48" height="48" viewBox="0 0 48 48" fill="none" xmlns="http://www.w3.org/2000/svg">
<g clip-path="url(#clip0_200_223)">
<path d="M7.5 42.375C7.5 40.304 9.17897 38.625 11.25 38.625H5.625C3.55397 38.625 1.875 40.304 1.875 42.375C1.875 44.446 3.55397 46.125 5.625 46.125H11.25C9.17897 46.125 7.5 44.446 7.5 42.375Z" fill="#CEE1F2"/>
<path d="M42.375 33.4688C41.3394 33.4688 40.5 32.6293 40.5 31.5938V28.9688C40.5 27.9332 41.3394 27.0938 42.375 27.0938C43.4106 27.0938 44.25 27.9332 44.25 28.9688V31.5938C44.25 32.6293 43.4106 33.4688 42.375 33.4688ZM7.5 31.5938V17.8125C7.5 13.677 10.8645 10.3125 15 10.3125H18.4688C19.5043 10.3125 20.3438 9.47306 20.3438 8.4375C20.3438 7.40194 19.5043 6.5625 18.4688 6.5625H15C8.79675 6.5625 3.75 11.6093 3.75 17.8125V31.5938C3.75 32.6293 4.58944 33.4688 5.625 33.4688C6.66056 33.4688 7.5 32.6293 7.5 31.5938ZM48 42.375C48 39.2734 45.4766 36.75 42.375 36.75H5.625C2.52338 36.75 0 39.2734 0 42.375C0 45.4766 2.52338 48 5.625 48H42.375C45.4766 48 48 45.4766 48 42.375ZM42.375 40.5C43.4089 40.5 44.25 41.3411 44.25 42.375C44.25 43.4089 43.4089 44.25 42.375 44.25H5.625C4.59113 44.25 3.75 43.4089 3.75 42.375C3.75 41.3411 4.59113 40.5 5.625 40.5H42.375Z" fill="#4E2DD8"/>
<path d="M25.0778 24.75C24.8362 24.75 24.5926 24.7033 24.3606 24.6072C23.6599 24.317 23.2032 23.6332 23.2032 22.8748L23.2036 12.4867C23.1743 9.17175 24.4492 6.04247 26.7941 3.675C29.1414 1.30519 32.2609 0 35.5782 0C38.9181 0 42.0421 1.29694 44.3746 3.65203C46.714 6.01397 47.9846 9.15488 47.9526 12.4961C47.921 15.7882 46.6119 18.8726 44.2663 21.1811C41.9279 23.4827 38.8278 24.75 35.5364 24.75C35.5325 24.75 35.5284 24.75 35.5244 24.75C33.589 24.75 31.7383 24.3176 30.0252 23.4647C28.8732 22.8911 27.486 23.1188 26.5735 24.0314L26.404 24.2009C26.0453 24.5595 25.5657 24.75 25.0778 24.75ZM28.6938 19.4003C29.7131 19.4003 30.7405 19.6318 31.6964 20.1078C32.8857 20.6998 34.1742 21.0001 35.5262 21.0001C35.5287 21 35.5318 21.0001 35.5345 21.0001C40.2704 21.0004 44.1575 17.1701 44.2027 12.4602C44.2251 10.1273 43.3399 7.9365 41.7102 6.291C40.0874 4.65234 37.9096 3.75 35.5782 3.75C33.2694 3.75 31.0961 4.66059 29.4584 6.31397C27.821 7.96725 26.9313 10.1499 26.9535 12.4601C26.9535 12.4661 26.9536 12.4722 26.9536 12.4782L26.9532 19.6289C27.5205 19.4773 28.1058 19.4003 28.6938 19.4003Z" fill="#FF4BAC"/>
</g>
<defs>
<clipPath id="clip0_200_223">
<rect width="48" height="48" fill="white"/>
</clipPath>
</defs>
</svg>
