<svg width="48" height="48" viewBox="0 0 48 48" fill="none" xmlns="http://www.w3.org/2000/svg">
<g clip-path="url(#clip0_200_208)">
<path d="M7.5 23.9996C7.5 19.3585 9.375 13.5934 12.1875 14.1559L8.15072 8.56434C4.26788 12.5506 1.875 17.9952 1.875 23.9996C1.875 36.2189 11.7807 46.1246 24 46.1246C24.9528 46.1246 25.8915 46.0643 26.8125 45.9474C15.9212 44.5657 7.5 35.2661 7.5 23.9996Z" fill="#CEE1F2"/>
<path d="M23.9999 22.875C20.8983 22.875 18.3749 20.3516 18.3749 17.25C18.3749 14.1484 20.8983 11.625 23.9999 11.625C27.1016 11.625 29.625 14.1484 29.625 17.25C29.625 20.3516 27.1016 22.875 23.9999 22.875ZM23.9999 15.375C22.9661 15.375 22.1249 16.2161 22.1249 17.25C22.1249 18.2839 22.9661 19.125 23.9999 19.125C25.0338 19.125 25.875 18.2839 25.875 17.25C25.875 16.2161 25.0338 15.375 23.9999 15.375ZM32.3437 32.625C32.3437 28.3861 28.8467 24.9375 24.5482 24.9375H23.4518C19.1532 24.9375 15.6562 28.3861 15.6562 32.625C15.6562 33.6606 16.4957 34.5 17.5313 34.5C18.5668 34.5 19.4063 33.6606 19.4063 32.625C19.4063 30.4538 21.2211 28.6875 23.4518 28.6875H24.5482C26.7789 28.6875 28.5937 30.4538 28.5937 32.625C28.5937 33.6606 29.4332 34.5 30.4687 34.5C31.5043 34.5 32.3437 33.6606 32.3437 32.625Z" fill="#FF4BAC"/>
<path d="M40.9706 7.02938C36.4375 2.49647 30.4106 0 24 0C17.5894 0 11.5625 2.49647 7.02938 7.02938C2.49647 11.5625 0 17.5894 0 24C0 30.4106 2.49647 36.4375 7.02938 40.9706C11.5625 45.5035 17.5894 48 24 48C30.4106 48 36.4375 45.5035 40.9706 40.9706C45.5035 36.4375 48 30.4106 48 24C48 17.5894 45.5035 11.5625 40.9706 7.02938ZM3.75 24C3.75 19.0908 5.5065 14.5844 8.42344 11.0751L11.1429 13.7946C11.509 14.1607 11.9889 14.3438 12.4688 14.3438C12.9486 14.3438 13.4285 14.1607 13.7947 13.7946C14.5268 13.0623 14.5268 11.8751 13.7947 11.1429L11.0752 8.42344C14.5844 5.5065 19.0908 3.75 24 3.75C35.1659 3.75 44.25 12.8341 44.25 24C44.25 28.9092 42.4935 33.4156 39.5766 36.9249L36.9248 34.5C36.1926 33.7677 35.0053 33.7677 34.2731 34.5C33.5409 35.2323 33.5408 36.4194 34.2731 37.1516L36.9248 39.5766C33.4156 42.4935 28.9092 44.25 24 44.25C12.8341 44.25 3.75 35.1659 3.75 24Z" fill="#4E2DD8"/>
</g>
<defs>
<clipPath id="clip0_200_208">
<rect width="48" height="48" fill="white"/>
</clipPath>
</defs>
</svg>
