<svg width="48" height="48" viewBox="0 0 48 48" fill="none" xmlns="http://www.w3.org/2000/svg">
<g clip-path="url(#clip0_200_116)">
<path d="M7.59375 36.75V11.25C7.59375 6.07228 11.791 1.875 16.9688 1.875H11.25C6.07228 1.875 1.875 6.07228 1.875 11.25V36.75C1.875 41.9276 6.07228 46.125 11.25 46.125H16.9688C11.791 46.125 7.59375 41.9276 7.59375 36.75Z" fill="#CEE1F2"/>
<path d="M36.75 48H11.25C5.04675 48 0 42.9533 0 36.75V11.25C0 5.04675 5.04675 0 11.25 0H36.75C42.9533 0 48 5.04675 48 11.25V36.75C48 42.9533 42.9533 48 36.75 48ZM11.25 3.75C7.1145 3.75 3.75 7.1145 3.75 11.25V36.75C3.75 40.8855 7.1145 44.25 11.25 44.25H36.75C40.8855 44.25 44.25 40.8855 44.25 36.75V11.25C44.25 7.1145 40.8855 3.75 36.75 3.75H11.25ZM19.7812 9.46875C19.7812 8.43319 18.9418 7.59375 17.9062 7.59375H10.0312C8.99569 7.59375 8.15625 8.43319 8.15625 9.46875C8.15625 10.5043 8.99569 11.3438 10.0312 11.3438H17.9062C18.9418 11.3438 19.7812 10.5043 19.7812 9.46875ZM36.9375 31.3125C36.9375 30.2769 36.0981 29.4375 35.0625 29.4375H19.4062C18.3707 29.4375 17.5312 30.2769 17.5312 31.3125C17.5312 32.3481 18.3707 33.1875 19.4062 33.1875H35.0625C36.0981 33.1875 36.9375 32.3481 36.9375 31.3125ZM39.4688 38.625C39.4688 37.5894 38.6293 36.75 37.5938 36.75H33.4688C32.4332 36.75 31.5938 37.5894 31.5938 38.625C31.5938 39.6606 32.4332 40.5 33.4688 40.5H37.5938C38.6293 40.5 39.4688 39.6606 39.4688 38.625Z" fill="#4E2DD8"/>
<path d="M37.875 25.875H24.6562C23.6207 25.875 22.7812 25.0356 22.7812 24C22.7812 22.9644 23.6207 22.125 24.6562 22.125H37.875C38.9106 22.125 39.75 22.9644 39.75 24C39.75 25.0356 38.9106 25.875 37.875 25.875ZM33.1875 16.7812C33.1875 15.7457 32.3481 14.9062 31.3125 14.9062H13.7812C12.7457 14.9062 11.9062 15.7457 11.9062 16.7812C11.9062 17.8168 12.7457 18.6562 13.7812 18.6562H31.3125C32.3481 18.6562 33.1875 17.8168 33.1875 16.7812Z" fill="#FF4BAC"/>
</g>
<defs>
<clipPath id="clip0_200_116">
<rect width="48" height="48" fill="white"/>
</clipPath>
</defs>
</svg>
