<svg width="48" height="48" viewBox="0 0 48 48" fill="none" xmlns="http://www.w3.org/2000/svg">
<path d="M7.5 31.6875V16.3125C7.5 11.1348 11.6974 6.9375 16.875 6.9375H11.25C6.07237 6.9375 1.875 11.1348 1.875 16.3125V31.6875C1.875 36.8652 6.07237 41.0625 11.25 41.0625H16.875C11.6974 41.0625 7.5 36.8652 7.5 31.6875Z" fill="#CEE1F2"/>
<path d="M36.75 42.9375H11.25C5.04675 42.9375 0 37.8908 0 31.6875V16.3125C0 10.1093 5.04675 5.0625 11.25 5.0625H36.75C42.9533 5.0625 48 10.1093 48 16.3125V31.6875C48 37.8908 42.9533 42.9375 36.75 42.9375ZM11.25 8.8125C7.1145 8.8125 3.75 12.177 3.75 16.3125V31.6875C3.75 35.823 7.1145 39.1875 11.25 39.1875H36.75C40.8855 39.1875 44.25 35.823 44.25 31.6875V16.3125C44.25 12.177 40.8855 8.8125 36.75 8.8125H11.25Z" fill="#4E2DD8"/>
<path d="M24.0464 29.6183C21.6393 29.6183 19.2327 28.8524 17.2242 27.3206C17.2196 27.3171 17.2151 27.3136 17.2106 27.3101L8.22424 20.3245C7.40665 19.6889 7.25908 18.511 7.89462 17.6934C8.53005 16.8758 9.70812 16.7281 10.5257 17.3638L19.5052 24.3439C22.1828 26.3812 25.9195 26.3796 28.5952 24.3388L37.8617 17.2604C38.6847 16.6318 39.8612 16.7893 40.4899 17.6122C41.1185 18.4351 40.961 19.6118 40.1381 20.2404L30.8704 27.3196C28.8613 28.852 26.4536 29.6183 24.0464 29.6183Z" fill="#FF4BAC"/>
</svg>
