<svg width="48" height="48" viewBox="0 0 48 48" fill="none" xmlns="http://www.w3.org/2000/svg">
<g clip-path="url(#clip0_200_228)">
<path d="M7.5 36.75V28.5465C7.5 21.1491 9.10341 13.8642 12.1717 7.18491C13.6557 3.95409 16.8759 1.875 20.4312 1.875H14.8062C11.2509 1.875 8.03081 3.95409 6.54666 7.18481C3.47841 13.8642 1.875 21.1491 1.875 28.5465V36.75C1.875 41.9276 6.07228 46.125 11.25 46.125H16.875C11.6973 46.125 7.5 41.9276 7.5 36.75Z" fill="#CEE1F2"/>
<path d="M36.75 48H11.25C5.04675 48 0 42.9533 0 36.75V28.5465C0 20.9567 1.67456 13.2993 4.84284 6.40219C6.62934 2.51297 10.5402 0 14.8062 0H33.1939C37.4599 0 41.3708 2.51297 43.1572 6.40219C46.3254 13.2993 48 20.9567 48 28.5465V36.75C48 42.9533 42.9533 48 36.75 48ZM14.8062 3.75C12.0007 3.75 9.42741 5.40544 8.25047 7.96753C5.30625 14.377 3.75 21.4931 3.75 28.5465V36.75C3.75 40.8855 7.1145 44.25 11.25 44.25H36.75C40.8855 44.25 44.25 40.8855 44.25 36.75V28.5465C44.25 21.4932 42.6937 14.3771 39.7495 7.96753C38.5726 5.40544 35.9993 3.75 33.1938 3.75H14.8062ZM35.9589 41.1753C36.9532 40.8859 37.5247 39.8452 37.2352 38.851C37.0376 38.1722 36.9375 37.4653 36.9375 36.75V28.5465C36.9375 24.7881 37.3666 20.2619 38.0854 16.4391C38.4266 14.6245 37.9449 12.7673 36.764 11.3437C35.5779 9.91378 33.8325 9.09375 31.9752 9.09375H12.5625C11.5269 9.09375 10.6875 9.93319 10.6875 10.9688C10.6875 12.0043 11.5269 12.8438 12.5625 12.8438H31.9752C32.7129 12.8438 33.4064 13.1696 33.8777 13.7377C34.3439 14.2998 34.5343 15.0318 34.4 15.746C33.6294 19.8442 33.1875 24.5098 33.1875 28.5465V36.75C33.1875 37.8202 33.3379 38.8795 33.6347 39.899C33.8732 40.7183 34.6217 41.2505 35.4341 41.2505C35.6076 41.2505 35.7839 41.2263 35.9589 41.1753Z" fill="#4E2DD8"/>
<path d="M29.233 25.6354C29.1824 24.5357 28.5279 23.5563 27.5246 23.0795C26.5009 22.5929 25.3019 22.7075 24.3955 23.3786C23.3922 24.1212 22.5135 24.6826 21.7382 25.1778C20.1217 26.2105 18.8448 27.0261 17.9099 28.5489C17.1686 29.7565 16.7456 31.2437 16.5363 33.4736C15.4191 33.1846 13.9588 32.6008 12.8366 31.4252C11.8124 30.3523 11.2285 28.9259 11.0932 27.1734C11.2892 27.2964 11.4804 27.4134 11.6632 27.5253C11.8932 27.6661 12.1105 27.7991 12.2931 27.9174C13.1622 28.4803 14.3231 28.2323 14.8861 27.3631C15.4492 26.4941 15.201 25.3331 14.332 24.77C14.1092 24.6256 13.872 24.4805 13.621 24.3268C13.1301 24.0263 12.6224 23.7156 12.1671 23.3786C11.2605 22.7074 10.0616 22.5928 9.03789 23.0794C8.03477 23.5562 7.38011 24.5356 7.32949 25.6354C7.17058 29.0874 8.11136 31.9071 10.1257 34.0162C12.141 36.1265 14.7057 36.9596 16.4028 37.2884V38.625C16.4028 39.6606 17.2422 40.5 18.2778 40.5C19.3134 40.5 20.1528 39.6606 20.1528 38.625V37.2898C21.8498 36.9619 24.4186 36.1295 26.4367 34.0164C28.4513 31.9072 29.392 29.0875 29.233 25.6354ZM23.726 31.4253C22.6985 32.5018 21.3869 33.0823 20.3153 33.3945C20.471 32.0483 20.7264 31.1291 21.106 30.5109C21.5693 29.756 22.2935 29.2731 23.757 28.3381C24.2548 28.0202 24.8297 27.6529 25.4659 27.218C25.3242 28.9503 24.7415 30.3614 23.726 31.4253Z" fill="#FF4BAC"/>
</g>
<defs>
<clipPath id="clip0_200_228">
<rect width="48" height="48" fill="white"/>
</clipPath>
</defs>
</svg>
