<svg width="48" height="48" viewBox="0 0 48 48" fill="none" xmlns="http://www.w3.org/2000/svg">
<g clip-path="url(#clip0_200_193)">
<path d="M7.59375 36.75V11.25C7.59375 6.07228 11.791 1.875 16.9688 1.875H11.25C6.07228 1.875 1.875 6.07228 1.875 11.25V36.75C1.875 41.9276 6.07228 46.125 11.25 46.125H16.9688C11.791 46.125 7.59375 41.9276 7.59375 36.75Z" fill="#CEE1F2"/>
<path d="M36.75 48H11.25C5.04675 48 0 42.9533 0 36.75V11.25C0 5.04675 5.04675 0 11.25 0H36.75C42.9533 0 48 5.04675 48 11.25V36.75C48 42.9533 42.9533 48 36.75 48ZM11.25 3.75C7.1145 3.75 3.75 7.1145 3.75 11.25V36.75C3.75 40.8855 7.1145 44.25 11.25 44.25H36.75C40.8855 44.25 44.25 40.8855 44.25 36.75V11.25C44.25 7.1145 40.8855 3.75 36.75 3.75H11.25Z" fill="#4E2DD8"/>
<path d="M30.6048 39.0927C29.817 39.0927 29.0248 38.9043 28.2917 38.5227L24.5764 36.5892C24.2152 36.4013 23.7843 36.4012 23.4231 36.5892L19.7079 38.5227C18.0099 39.4065 15.996 39.2541 14.4518 38.1252C12.9249 37.0089 12.1762 35.1621 12.4979 33.3052L13.2074 29.2099C13.2736 28.8276 13.1443 28.4364 12.8615 28.1636L9.85583 25.2633C8.49017 23.9453 8.00305 22.0079 8.58458 20.207C9.17014 18.3936 10.712 17.0977 12.6085 16.8249L16.7623 16.2274C17.1629 16.1697 17.5078 15.9233 17.6848 15.5684L19.5425 11.8424C20.3878 10.1469 22.0956 9.09375 23.9998 9.09375C25.904 9.09375 27.6118 10.1469 28.457 11.8424L30.3146 15.5683C30.4917 15.9233 30.8365 16.1697 31.2372 16.2274L35.391 16.8249C37.2875 17.0977 38.8294 18.3936 39.4149 20.207C39.9965 22.0079 39.5094 23.9453 38.1437 25.2632L35.138 28.1636C34.8551 28.4364 34.7258 28.8276 34.7921 29.2098L35.5016 33.3052C35.8234 35.1621 35.0746 37.0089 33.5477 38.1252C32.6704 38.7666 31.6414 39.0927 30.6048 39.0927ZM23.9998 32.6987C24.7925 32.6987 25.585 32.8867 26.3076 33.2628L30.0229 35.1963C30.6432 35.5192 31.1468 35.235 31.3346 35.0978C31.5139 34.9669 31.9188 34.5921 31.8067 33.9453L31.0972 29.85C30.8184 28.2414 31.3556 26.6021 32.534 25.465L35.5398 22.5647C36.0185 22.1027 35.9136 21.5678 35.8464 21.3594C35.7771 21.1449 35.5421 20.6352 34.8571 20.5368L30.7033 19.9392C29.0845 19.7064 27.6847 18.698 26.9586 17.2416L25.1012 13.5158C24.7986 12.9092 24.2302 12.8438 23.9998 12.8438C23.7694 12.8438 23.201 12.9092 22.8985 13.5157L21.041 17.2416C20.315 18.6979 18.9151 19.7063 17.2964 19.9391L13.1426 20.5367C12.4576 20.6352 12.2226 21.1448 12.1533 21.3593C12.086 21.5678 11.981 22.1027 12.4599 22.5647L15.4656 25.4649C16.6441 26.6021 17.1813 28.2413 16.9025 29.85L16.193 33.9452C16.0809 34.592 16.4858 34.9667 16.6651 35.0978C16.8528 35.235 17.3561 35.5189 17.9769 35.1962L21.692 33.2627C22.4144 32.8868 23.2072 32.6987 23.9998 32.6987Z" fill="#FF4BAC"/>
</g>
<defs>
<clipPath id="clip0_200_193">
<rect width="48" height="48" fill="white"/>
</clipPath>
</defs>
</svg>
