<svg width="48" height="48" viewBox="0 0 48 48" fill="none" xmlns="http://www.w3.org/2000/svg">
<g clip-path="url(#clip0_200_163)">
<path d="M7.5 24C7.5 12.7335 15.9212 3.43387 26.8125 2.05219C25.8915 1.93528 24.9528 1.875 24 1.875C11.7807 1.875 1.875 11.7807 1.875 24C1.875 36.2193 11.7807 46.125 24 46.125C24.9528 46.125 25.8915 46.0647 26.8125 45.9478C15.9212 44.5661 7.5 35.2665 7.5 24Z" fill="#CEE1F2"/>
<path d="M24 48C17.5894 48 11.5625 45.5035 7.02938 40.9706C2.49647 36.4375 0 30.4106 0 24C0 17.5894 2.49647 11.5625 7.02938 7.02938C11.5625 2.49647 17.5894 0 24 0C30.4106 0 36.4375 2.49647 40.9706 7.02938C45.5035 11.5625 48 17.5894 48 24C48 30.4106 45.5035 36.4375 40.9706 40.9706C36.4375 45.5035 30.4106 48 24 48ZM24 3.75C12.8341 3.75 3.75 12.8341 3.75 24C3.75 35.1659 12.8341 44.25 24 44.25C35.1659 44.25 44.25 35.1659 44.25 24C44.25 12.8341 35.1659 3.75 24 3.75Z" fill="#4E2DD8"/>
<path d="M32.7321 30.0804L26.8082 24.1566C26.811 24.1047 26.8125 24.0526 26.8125 24C26.8125 23.1666 26.45 22.4179 25.8741 21.9028C25.8746 21.8832 25.875 21.8635 25.875 21.8438V10.875C25.875 9.83944 25.0356 9 24 9C22.9644 9 22.125 9.83944 22.125 10.875V21.8438C22.125 21.8635 22.1254 21.8832 22.1259 21.9028C21.55 22.4179 21.1875 23.1666 21.1875 24C21.1875 25.5533 22.4467 26.8125 24 26.8125C24.0525 26.8125 24.1047 26.811 24.1566 26.8082L30.0804 32.7321C30.4465 33.0982 30.9263 33.2812 31.4062 33.2812C31.8862 33.2812 32.366 33.0982 32.7321 32.7321C33.4643 31.9999 33.4643 30.8126 32.7321 30.0804Z" fill="#FF4BAC"/>
</g>
<defs>
<clipPath id="clip0_200_163">
<rect width="48" height="48" fill="white"/>
</clipPath>
</defs>
</svg>
