<svg width="48" height="48" viewBox="0 0 48 48" fill="none" xmlns="http://www.w3.org/2000/svg">
<g clip-path="url(#clip0_200_158)">
<path d="M7.78125 24.2173C7.67297 12.9355 16.0685 3.51178 26.9498 2.06756C25.9862 1.94119 25.0018 1.875 24 1.875C11.7523 1.875 1.75828 11.948 1.87603 24.2173L1.875 46.125L2.24175 45.7583C3.77119 44.2288 5.74697 43.2562 7.78041 42.8977L7.78125 24.2173Z" fill="#CEE1F2"/>
<path d="M1.87451 48C1.63292 48 1.38936 47.9533 1.15732 47.8572C0.456731 47.567 -0.000112925 46.8833 -0.000112925 46.1249L0.000918325 24.2264C-0.0583317 17.7955 2.41489 11.7234 6.96561 7.12884C11.5188 2.53172 17.5683 0 23.9999 0C30.4793 0 36.5382 2.51447 41.0603 7.08028C45.5969 11.6606 48.061 17.7531 47.9988 24.2354C47.9375 30.6192 45.399 36.6001 40.8509 41.0765C36.3144 45.5414 30.2989 48 23.9118 48C23.9042 48 23.8961 48 23.8886 48C20.1104 48.0001 16.5035 47.1527 13.1684 45.4813C9.98154 43.8842 6.12326 44.5283 3.56745 47.0841L3.2007 47.4508C2.84211 47.8095 2.36239 48 1.87451 48ZM9.49367 40.861C11.3145 40.861 13.1463 41.2756 14.8486 42.1287C17.6571 43.5363 20.6993 44.25 23.8904 44.25H23.9098C35.021 44.2508 44.1428 35.2578 44.2489 24.1993C44.3015 18.7254 42.2229 13.583 38.396 9.71916C34.5835 5.86987 29.4709 3.75 23.9999 3.75C18.5767 3.75 13.4734 5.88713 9.62989 9.76772C5.78661 13.6481 3.6987 18.7733 3.75082 24.1993C3.75082 24.2053 3.75092 24.2114 3.75092 24.2174L3.75007 42.3175C5.52682 41.3568 7.50345 40.861 9.49367 40.861Z" fill="#4E2DD8"/>
<path d="M18.375 24C18.375 25.2944 17.3257 26.3438 16.0312 26.3438C14.7368 26.3438 13.6875 25.2944 13.6875 24C13.6875 22.7056 14.7368 21.6562 16.0312 21.6562C17.3257 21.6562 18.375 22.7056 18.375 24ZM24.0938 21.6562C22.7993 21.6562 21.75 22.7056 21.75 24C21.75 25.2944 22.7993 26.3438 24.0938 26.3438C25.3882 26.3438 26.4375 25.2944 26.4375 24C26.4375 22.7056 25.3882 21.6562 24.0938 21.6562ZM32.1562 21.6562C30.8618 21.6562 29.8125 22.7056 29.8125 24C29.8125 25.2944 30.8618 26.3438 32.1562 26.3438C33.4507 26.3438 34.5 25.2944 34.5 24C34.5 22.7056 33.4507 21.6562 32.1562 21.6562Z" fill="#FF4BAC"/>
</g>
<defs>
<clipPath id="clip0_200_158">
<rect width="48" height="48" fill="white"/>
</clipPath>
</defs>
</svg>
