<svg width="48" height="48" viewBox="0 0 48 48" fill="none" xmlns="http://www.w3.org/2000/svg">
<g clip-path="url(#clip0_200_178)">
<path d="M7.49997 29.2501V11.2502C7.49997 6.07249 11.6972 1.87523 16.8749 1.87523H11.2499C6.07226 1.87523 1.875 6.07249 1.875 11.2502V29.2501C1.875 34.4278 6.07226 38.625 11.2499 38.625H16.8749C11.6972 38.625 7.49997 34.4277 7.49997 29.2501Z" fill="#CEE1F2"/>
<path d="M36.7498 40.5H11.2499C5.04672 40.5 0 35.4533 0 29.2501V11.2502C0 5.04695 5.04672 0.000228882 11.2499 0.000228882H29.2498C30.2854 0.000228882 31.1248 0.839661 31.1248 1.87522C31.1248 2.91077 30.2854 3.75021 29.2498 3.75021H11.2499C7.11446 3.75021 3.74998 7.11469 3.74998 11.2502V29.2501C3.74998 33.3855 7.11446 36.75 11.2499 36.75H36.7498C40.8853 36.75 44.2497 33.3855 44.2497 29.2501V28.5001C44.2497 27.4645 45.0892 26.6251 46.1247 26.6251C47.1603 26.6251 47.9997 27.4645 47.9997 28.5001V29.2501C47.9997 35.4533 42.953 40.5 36.7498 40.5ZM43.7085 46.483C45.3638 45.5213 46.7563 44.1435 47.7358 42.4984C48.2656 41.6087 47.9738 40.4579 47.084 39.9281C46.1945 39.3984 45.0435 39.6901 44.5137 40.58C43.1659 42.8436 40.6945 44.2499 38.0638 44.2499H9.93744C7.30674 44.2499 4.83532 42.8436 3.48748 40.58C2.9578 39.6901 1.80655 39.3984 0.917245 39.9281C0.0274686 40.4579 -0.264373 41.6087 0.265405 42.4984C1.2449 44.1435 2.63745 45.5213 4.29269 46.483C6.00072 47.4753 7.95258 47.9999 9.93744 47.9999H38.0638C40.0486 47.9999 42.0005 47.4753 43.7085 46.483ZM25.8748 31.125V9.37517C25.8748 8.33962 25.0354 7.50019 23.9999 7.50019C22.9643 7.50019 22.1249 8.33962 22.1249 9.37517V31.125C22.1249 32.1606 22.9643 33 23.9999 33C25.0354 33 25.8748 32.1606 25.8748 31.125ZM18.3749 13.0314C18.3749 11.9958 17.5355 11.1564 16.4999 11.1564H9.37495C8.33939 11.1564 7.49996 11.9958 7.49996 13.0314C7.49996 14.067 8.33939 14.9064 9.37495 14.9064H16.4999C17.5355 14.9064 18.3749 14.067 18.3749 13.0314ZM18.3749 20.5314C18.3749 19.4958 17.5355 18.6564 16.4999 18.6564H9.37495C8.33939 18.6564 7.49996 19.4958 7.49996 20.5314C7.49996 21.5669 8.33939 22.4063 9.37495 22.4063H16.4999C17.5355 22.4063 18.3749 21.5669 18.3749 20.5314ZM40.4998 28.0313C40.4998 26.9958 39.6603 26.1563 38.6248 26.1563H31.4998C30.4643 26.1563 29.6248 26.9958 29.6248 28.0313C29.6248 29.0669 30.4643 29.9063 31.4998 29.9063H38.6248C39.6603 29.9063 40.4998 29.0669 40.4998 28.0313ZM18.3749 28.0313C18.3749 26.9958 17.5355 26.1563 16.4999 26.1563H9.37495C8.33939 26.1563 7.49996 26.9958 7.49996 28.0313C7.49996 29.0669 8.33939 29.9063 9.37495 29.9063H16.4999C17.5355 29.9063 18.3749 29.0669 18.3749 28.0313Z" fill="#4E2DD8"/>
<path d="M39.6561 11.2502C36.5545 11.2502 34.0311 8.7268 34.0311 5.6252C34.0311 2.52359 36.5545 0.000228882 39.6561 0.000228882C42.7577 0.000228882 45.2811 2.52359 45.2811 5.6252C45.2811 8.7268 42.7577 11.2502 39.6561 11.2502ZM39.6561 3.75021C38.6222 3.75021 37.7811 4.59133 37.7811 5.6252C37.7811 6.65907 38.6222 7.50019 39.6561 7.50019C40.69 7.50019 41.5311 6.65907 41.5311 5.6252C41.5311 4.59133 40.69 3.75021 39.6561 3.75021ZM47.9998 21.0001C47.9998 16.7612 44.5028 13.3127 40.2044 13.3127H39.108C34.8094 13.3127 31.3125 16.7612 31.3125 21.0001C31.3125 22.0357 32.1519 22.8751 33.1875 22.8751C34.223 22.8751 35.0625 22.0357 35.0625 21.0001C35.0625 18.829 36.8773 17.0626 39.108 17.0626H40.2044C42.435 17.0626 44.2498 18.829 44.2498 21.0001C44.2498 22.0357 45.0893 22.8751 46.1248 22.8751C47.1604 22.8751 47.9998 22.0357 47.9998 21.0001Z" fill="#FF4BAC"/>
</g>
<defs>
<clipPath id="clip0_200_178">
<rect width="48" height="48" fill="white"/>
</clipPath>
</defs>
</svg>
