<svg width="48" height="48" viewBox="0 0 48 48" fill="none" xmlns="http://www.w3.org/2000/svg">
<g clip-path="url(#clip0_200_148)">
<path d="M9.78024 37.8054L7.53758 19.3573C7.32651 17.5053 7.95372 15.7696 9.10092 14.5036L8.0601 13.221C4.3664 13.221 1.49588 16.4372 1.91408 20.1071L3.93114 37.8072C4.47071 42.5423 8.47765 46.1185 13.2434 46.1185H19.0929L19.0925 46.1166C14.3268 46.1166 10.3199 42.5403 9.78024 37.8054Z" fill="#CEE1F2"/>
<path d="M34.7565 47.9933H13.2434C7.52068 47.9933 2.71671 43.7056 2.06879 38.0197L0.0517285 20.3197C-0.208078 18.0404 0.519042 15.7515 2.04657 14.04C3.57411 12.3284 5.76605 11.3468 8.06007 11.3468C9.09536 11.3468 9.93457 12.186 9.93457 13.2213C9.93457 14.2566 9.09536 15.0958 8.06007 15.0958C6.81493 15.0958 5.67261 15.6073 4.84361 16.5363C4.01452 17.4653 3.63559 18.6581 3.77655 19.8952L5.79361 37.5953C6.22549 41.3859 9.42827 44.2443 13.2434 44.2443H34.7565C38.5715 44.2443 41.7742 41.3859 42.2062 37.5953L44.2232 19.8952C44.3642 18.6581 43.9852 17.4652 43.1561 16.5363C42.327 15.6073 41.1848 15.0958 39.9397 15.0958C38.9044 15.0958 38.0652 14.2566 38.0652 13.2213C38.0652 12.186 38.9044 11.3468 39.9397 11.3468C42.2338 11.3468 44.4256 12.3284 45.9531 14.0399C47.4807 15.7514 48.2079 18.0403 47.9481 20.3197L45.931 38.0197C45.2834 43.7056 40.4793 47.9933 34.7565 47.9933ZM17.1654 26.624V10.597C17.1654 6.82436 20.2347 3.75505 24.0073 3.75505C27.7799 3.75505 30.8492 6.82436 30.8492 10.597V11.3468H22.7889C21.7536 11.3468 20.9144 12.186 20.9144 13.2213C20.9144 14.2566 21.7536 15.0958 22.7889 15.0958H32.7237C33.759 15.0958 34.5982 14.2566 34.5982 13.2213V10.597C34.5982 4.75707 29.8472 0.00605011 24.0073 0.00605011C18.1674 0.00605011 13.4164 4.75707 13.4164 10.597V26.624C13.4164 27.6593 14.2556 28.4985 15.2909 28.4985C16.3262 28.4985 17.1654 27.6593 17.1654 26.624Z" fill="#4E2DD8"/>
<path d="M34.5942 32.4371C34.5942 29.8524 32.2811 27.7496 29.438 27.7496C28.5294 27.7496 27.8442 27.3466 27.8442 26.8121C27.8442 26.2952 28.2648 25.8746 28.7817 25.8746C29.4477 25.8746 30.2578 25.95 31.6646 26.4971C32.6298 26.8722 33.7164 26.3943 34.0917 25.4292C34.467 24.4641 33.9889 23.3774 33.0238 23.0021C32.423 22.7685 31.8885 22.5967 31.4067 22.4696V22.1246C31.4067 21.0891 30.5673 20.2496 29.5317 20.2496C28.4961 20.2496 27.6567 21.0891 27.6567 22.1246V22.2621C25.6137 22.7674 24.0942 24.6153 24.0942 26.8121C24.0942 29.4845 26.3915 31.4996 29.438 31.4996C30.23 31.4996 30.8442 32.0035 30.8442 32.4371C30.8442 32.919 30.3202 33.3746 29.7661 33.3746C29.3742 33.3746 28.0357 33.2469 26.5681 32.6635C25.6059 32.2812 24.5156 32.7511 24.1331 33.7134C23.7506 34.6757 24.2206 35.7658 25.1829 36.1483C26.041 36.4894 26.8925 36.7253 27.6568 36.8802V37.1246C27.6568 38.1602 28.4962 38.9996 29.5318 38.9996C30.5674 38.9996 31.4068 38.1602 31.4068 37.1246V36.8347C33.2449 36.1664 34.5942 34.4221 34.5942 32.4371Z" fill="#FF4BAC"/>
</g>
<defs>
<clipPath id="clip0_200_148">
<rect width="48" height="48" fill="white"/>
</clipPath>
</defs>
</svg>
