<svg width="48" height="48" viewBox="0 0 48 48" fill="none" xmlns="http://www.w3.org/2000/svg">
<g clip-path="url(#clip0_200_188)">
<path d="M8.79328 39.1406C8.90906 38.9034 9.36572 37.571 9.47803 37.3594C8.26819 36.3277 7.5 34.7933 7.5 33.0786C7.5 32.7799 7.5 30.636 7.5 23.1094C7.5 13.1417 12.1485 6.3255 25.7734 5.25731C25.2407 5.16112 24.6814 5.10938 24.0937 5.10938C7.40625 5.10938 1.875 12.2344 1.875 23.1094V33.5156C1.875 36.6222 4.39341 39.1406 7.5 39.1406H8.79328Z" fill="#CEE1F2"/>
<path d="M44.1538 19.5021C42.146 18.3984 39.9211 17.6031 37.3832 17.0845C37.0003 15.4795 36.2585 12.9835 34.9478 10.5637C32.3505 5.76881 28.5973 3.23438 24.0938 3.23438C15.579 3.23438 9.48656 5.00297 5.46816 8.64131C3.56137 10.3678 2.13637 12.5347 1.23291 15.0822C0.41475 17.3888 0 20.0895 0 23.1094V33.5214C0.00328125 37.6543 3.36656 41.0156 7.5 41.0156H7.82128C8.59509 43.1982 10.6805 44.7656 13.125 44.7656C15.5695 44.7656 17.6548 43.1982 18.4287 41.0156H28.6338C29.4076 43.1982 31.493 44.7656 33.9375 44.7656C36.382 44.7656 38.4673 43.1982 39.2412 41.0156H40.5C44.6355 41.0156 48 37.6511 48 33.5156V26.0521C48 23.3161 46.5262 20.8063 44.1538 19.5021ZM44.25 33.5156C44.25 35.5834 42.5677 37.2656 40.5 37.2656H37.6875C36.6519 37.2656 35.8125 38.1051 35.8125 39.1406C35.8125 40.1745 34.9714 41.0156 33.9375 41.0156C32.9036 41.0156 32.0625 40.1745 32.0625 39.1406C32.0625 38.1051 31.2231 37.2656 30.1875 37.2656H16.875C15.8394 37.2656 15 38.1051 15 39.1406C15 40.1745 14.1589 41.0156 13.125 41.0156C12.0911 41.0156 11.25 40.1745 11.25 39.1406C11.25 38.1051 10.4106 37.2656 9.375 37.2656H7.5C5.43225 37.2656 3.75 35.5834 3.75 33.5156V23.1094C3.75 15.6019 6.06234 6.98438 24.0938 6.98438C31.3237 6.98438 33.5765 16.9719 33.9548 18.9742C33.9902 19.1618 34.064 19.5523 34.4017 19.9382C34.689 20.2663 35.0817 20.484 35.5122 20.5539C38.1572 20.9831 40.393 21.714 42.3474 22.7883C43.5209 23.4335 44.25 24.6841 44.25 26.0521V33.5156ZM30.1875 18.7031C30.1875 19.7387 29.3481 20.5781 28.3125 20.5781H9.75C8.71444 20.5781 7.875 19.7387 7.875 18.7031C7.875 17.6676 8.71444 16.8281 9.75 16.8281H17.1562V12.7969C17.1562 11.7613 17.9957 10.9219 19.0312 10.9219C20.0668 10.9219 20.9062 11.7613 20.9062 12.7969V16.8281H28.3125C29.3481 16.8281 30.1875 17.6676 30.1875 18.7031Z" fill="#4E2DD8"/>
<path d="M13.4062 26.5781C13.4062 27.8725 12.3569 28.9219 11.0625 28.9219C9.76809 28.9219 8.71875 27.8725 8.71875 26.5781C8.71875 25.2837 9.76809 24.2344 11.0625 24.2344C12.3569 24.2344 13.4062 25.2837 13.4062 26.5781ZM19.125 24.2344C17.8306 24.2344 16.7812 25.2837 16.7812 26.5781C16.7812 27.8725 17.8306 28.9219 19.125 28.9219C20.4194 28.9219 21.4688 27.8725 21.4688 26.5781C21.4688 25.2837 20.4194 24.2344 19.125 24.2344ZM27.1875 24.2344C25.8931 24.2344 24.8438 25.2837 24.8438 26.5781C24.8438 27.8725 25.8931 28.9219 27.1875 28.9219C28.4819 28.9219 29.5312 27.8725 29.5312 26.5781C29.5312 25.2837 28.4819 24.2344 27.1875 24.2344ZM15.0938 29.4844C13.7993 29.4844 12.75 30.5337 12.75 31.8281C12.75 33.1225 13.7993 34.1719 15.0938 34.1719C16.3882 34.1719 17.4375 33.1225 17.4375 31.8281C17.4375 30.5337 16.3882 29.4844 15.0938 29.4844ZM23.1562 29.4844C21.8618 29.4844 20.8125 30.5337 20.8125 31.8281C20.8125 33.1225 21.8618 34.1719 23.1562 34.1719C24.4507 34.1719 25.5 33.1225 25.5 31.8281C25.5 30.5337 24.4507 29.4844 23.1562 29.4844Z" fill="#FF4BAC"/>
</g>
<defs>
<clipPath id="clip0_200_188">
<rect width="48" height="48" fill="white"/>
</clipPath>
</defs>
</svg>
