<svg width="48" height="48" viewBox="0 0 48 48" fill="none" xmlns="http://www.w3.org/2000/svg">
<g clip-path="url(#clip0_200_168)">
<path d="M9.7805 37.8053L7.53775 19.3573C7.32668 17.5053 7.95389 15.7695 9.10109 14.5036L8.06027 13.221C4.36656 13.221 1.49604 16.4371 1.91434 20.1071L3.9314 37.8072C4.47097 42.5423 8.478 46.1185 13.2436 46.1185H19.0931L19.0927 46.1167C14.3271 46.1167 10.3201 42.5403 9.7805 37.8053Z" fill="#CEE1F2"/>
<path d="M34.7565 47.9933H13.2435C7.52084 47.9933 2.71677 43.7056 2.06875 38.0197L0.0516958 20.3197C-0.208016 18.0404 0.519103 15.7516 2.04663 14.0401C3.57417 12.3285 5.76602 11.3469 8.06013 11.3469C9.09542 11.3469 9.93463 12.1861 9.93463 13.2214C9.93463 14.2567 9.09542 15.0959 8.06013 15.0959C6.81499 15.0959 5.67277 15.6074 4.84367 16.5364C4.01458 17.4653 3.63565 18.6582 3.77661 19.8953L5.79367 37.5953C6.22565 41.3859 9.42833 44.2444 13.2434 44.2444H34.7565C38.5716 44.2444 41.7744 41.386 42.2062 37.5954L44.2233 19.8953C44.3643 18.6582 43.9853 17.4653 43.1562 16.5364C42.3272 15.6074 41.1849 15.0959 39.9398 15.0959C38.9045 15.0959 38.0653 14.2567 38.0653 13.2214C38.0653 12.1861 38.9045 11.3469 39.9398 11.3469C42.2339 11.3469 44.4258 12.3286 45.9533 14.0401C47.4808 15.7516 48.208 18.0404 47.9481 20.3197L45.9311 38.0198C45.2833 43.7057 40.4793 47.9933 34.7565 47.9933ZM17.2445 17.5326V10.597C17.2445 6.82436 20.3138 3.75505 24.0865 3.75505C27.8591 3.75505 30.9284 6.82436 30.9284 10.597V11.3468H22.868C21.8328 11.3468 20.9935 12.186 20.9935 13.2213C20.9935 14.2566 21.8328 15.0958 22.868 15.0958H32.8029C33.8382 15.0958 34.6774 14.2566 34.6774 13.2213V10.597C34.6774 4.75706 29.9264 0.00604248 24.0865 0.00604248C18.2466 0.00604248 13.4955 4.75706 13.4955 10.597V17.5326C13.4955 18.5679 14.3347 19.4071 15.37 19.4071C16.4053 19.4071 17.2445 18.5679 17.2445 17.5326Z" fill="#4E2DD8"/>
<path d="M18.2755 27.2797C18.2755 28.5738 17.2264 29.6229 15.9324 29.6229C14.6383 29.6229 13.5892 28.5738 13.5892 27.2797C13.5892 25.9857 14.6383 24.9366 15.9324 24.9366C17.2264 24.9366 18.2755 25.9857 18.2755 27.2797ZM23.9927 24.9366C22.6987 24.9366 21.6496 25.9857 21.6496 27.2797C21.6496 28.5738 22.6987 29.6229 23.9927 29.6229C25.2868 29.6229 26.3359 28.5738 26.3359 27.2797C26.3359 25.9857 25.2868 24.9366 23.9927 24.9366ZM32.0531 24.9366C30.759 24.9366 29.71 25.9857 29.71 27.2797C29.71 28.5738 30.759 29.6229 32.0531 29.6229C33.3472 29.6229 34.3962 28.5738 34.3962 27.2797C34.3962 25.9857 33.3472 24.9366 32.0531 24.9366ZM15.9324 32.997C14.6383 32.997 13.5892 34.046 13.5892 35.3401C13.5892 36.6342 14.6383 37.6832 15.9324 37.6832C17.2264 37.6832 18.2755 36.6342 18.2755 35.3401C18.2755 34.046 17.2264 32.997 15.9324 32.997ZM23.9927 32.997C22.6987 32.997 21.6496 34.046 21.6496 35.3401C21.6496 36.6342 22.6987 37.6832 23.9927 37.6832C25.2868 37.6832 26.3359 36.6342 26.3359 35.3401C26.3359 34.046 25.2868 32.997 23.9927 32.997ZM32.0531 32.997C30.759 32.997 29.71 34.046 29.71 35.3401C29.71 36.6342 30.759 37.6832 32.0531 37.6832C33.3472 37.6832 34.3962 36.6342 34.3962 35.3401C34.3962 34.046 33.3472 32.997 32.0531 32.997Z" fill="#FF4BAC"/>
</g>
<defs>
<clipPath id="clip0_200_168">
<rect width="48" height="48" fill="white"/>
</clipPath>
</defs>
</svg>
