<svg width="48" height="48" viewBox="0 0 48 48" fill="none" xmlns="http://www.w3.org/2000/svg">
<g clip-path="url(#clip0_200_203)">
<path d="M28.6075 35.7426C25.0624 36.4084 22.2875 36.3619 22.2875 36.3619C16.8333 30.9076 8.66574 16.5036 2.25195 5.5696C0.786497 3.07129 4.12525 0.558745 6.1203 2.65847L9.4361 6.25982C15.6535 16.8835 23.3337 30.2972 28.6075 35.7426ZM34.5255 16.4727C31.8284 13.7756 31.8962 9.33514 34.5932 6.63806L33.2692 5.20035C31.9426 6.39749 30.5154 7.71693 29.4387 8.79355C26.7417 11.4906 26.674 15.9311 29.3711 18.6282C32.0682 21.3253 36.5087 21.2575 39.2057 18.5604C39.2389 18.5273 39.2725 18.4935 39.3061 18.4597C37.5676 18.4426 35.8396 17.7868 34.5255 16.4727Z" fill="#CEE1F2"/>
<path d="M7.49942 1.3893C7.49276 1.38209 7.48601 1.37496 7.47936 1.36784C5.98514 -0.257208 3.48965 -0.439488 1.76141 0.892698C0.952356 1.50158 0.376185 2.36105 0.138987 3.31275C-0.127075 4.38056 0.0492065 5.51903 0.635405 6.51843C1.26359 7.58924 1.90846 8.69341 2.56616 9.81914C8.80283 20.4958 15.8717 32.597 20.9623 37.6876C21.3061 38.0315 21.77 38.2283 22.2561 38.2363C22.4974 38.2405 28.2297 38.3122 33.9242 36.2504C34.0661 36.1989 34.198 36.1322 34.3187 36.0527L44.7464 47.3785C45.449 48.1414 46.6352 48.1877 47.3949 47.4879C48.1564 46.7867 48.2053 45.6009 47.5042 44.8394L7.49942 1.3893ZM23.0726 34.4755C18.3274 29.3688 11.4055 17.5195 5.80305 7.9283C5.14422 6.80052 4.49804 5.69438 3.86882 4.62169C3.80613 4.51467 3.61513 4.18919 4.01559 3.8878C4.28924 3.66372 4.58848 3.74478 4.75248 3.94028L31.5844 33.0829C28.0328 34.1878 24.559 34.4253 23.0726 34.4755ZM28.0459 19.954C24.6356 16.6853 24.7111 10.7279 28.1137 7.46862C30.8285 4.75365 35.6089 0.628978 35.8111 0.454759C36.5952 -0.221034 37.7788 -0.133315 38.4546 0.650814C39.1304 1.43494 39.0426 2.6184 38.2586 3.29429C38.2102 3.33608 33.3807 7.50302 30.7643 10.1194C29.8051 11.0787 29.2696 12.3607 29.2566 13.7292C29.1768 16.4778 31.5236 18.8197 34.2709 18.7434C35.6393 18.7304 36.9213 18.195 37.8806 17.2357C40.4984 14.6179 44.6639 9.7899 44.7057 9.74145C45.3816 8.95732 46.5651 8.8696 47.3491 9.54539C48.1333 10.2212 48.221 11.4047 47.5452 12.1889C47.371 12.391 43.2463 17.1714 40.5313 19.8864C38.8542 21.5648 36.6037 22.4931 34.2193 22.4924C31.874 22.4923 29.6848 21.5928 28.0459 19.954ZM33.3577 12.0852L40.2927 5.05644C41.0197 4.31964 42.2064 4.31158 42.9434 5.03864C43.6803 5.76569 43.6883 6.95243 42.9612 7.68933L36.0262 14.7181C35.2988 15.4552 34.1121 15.4627 33.3755 14.7359C32.6386 14.0088 32.6306 12.8221 33.3577 12.0852Z" fill="#4E2DD8"/>
<path d="M1.87393 47.9997C0.228172 48.0098 -0.63318 45.9746 0.54859 44.8L10.9681 34.3804C12.7967 32.6919 15.3066 35.2047 13.6188 37.0312L3.19928 47.4507C2.83331 47.8168 2.35367 47.9997 1.87393 47.9997Z" fill="#FF4BAC"/>
</g>
<defs>
<clipPath id="clip0_200_203">
<rect width="48" height="48" fill="white"/>
</clipPath>
</defs>
</svg>
