<svg width="48" height="48" viewBox="0 0 48 48" fill="none" xmlns="http://www.w3.org/2000/svg">
<g clip-path="url(#clip0_417_3)">
<path d="M7.59375 36.75V11.25C7.59375 6.07228 11.791 1.875 16.9688 1.875H11.25C6.07228 1.875 1.875 6.07228 1.875 11.25V36.75C1.875 41.9277 6.07228 46.125 11.25 46.125H16.9688C11.791 46.125 7.59375 41.9277 7.59375 36.75Z" fill="#C6E1F2"/>
<path d="M22.5938 48H11.25C5.04675 48 0 42.9533 0 36.75V11.25C0 5.04675 5.04675 0 11.25 0H22.5938C28.797 0 33.8438 5.04675 33.8438 11.25V13.125C33.8438 14.1606 33.0043 15 31.9688 15C30.9332 15 30.0938 14.1606 30.0938 13.125V11.25C30.0938 7.1145 26.7292 3.75 22.5938 3.75H11.25C7.1145 3.75 3.75 7.1145 3.75 11.25V36.75C3.75 40.8855 7.1145 44.25 11.25 44.25H22.5938C26.7292 44.25 30.0938 40.8855 30.0938 36.75V34.875C30.0938 33.8394 30.9332 33 31.9688 33C33.0043 33 33.8438 33.8394 33.8438 34.875V36.75C33.8438 42.9533 28.797 48 22.5938 48Z" fill="#4E2DD8"/>
<path d="M40.6875 33.0001C40.2068 33.0001 39.7262 32.8164 39.3599 32.4491C38.6287 31.716 38.6303 30.5287 39.3635 29.7975L43.7031 25.4694C44.0558 25.1178 44.25 24.6509 44.25 24.1547C44.25 23.6601 44.0572 23.1948 43.707 22.8437L39.3737 18.5879C38.6348 17.8623 38.6242 16.6752 39.3497 15.9364C40.0752 15.1976 41.2625 15.1868 42.0012 15.9124L46.3408 20.1743C46.3442 20.1776 46.3475 20.1809 46.3508 20.1843C47.4142 21.2445 47.9999 22.6546 47.9999 24.1547C47.9998 25.6548 47.4142 27.0648 46.3507 28.125L42.0114 32.4528C41.6456 32.8176 41.1665 33.0001 40.6875 33.0001ZM40.5938 24.0001C40.5938 22.9645 39.7543 22.1251 38.7188 22.1251H18.4688C17.4332 22.1251 16.5938 22.9645 16.5938 24.0001C16.5938 25.0356 17.4332 25.8751 18.4688 25.8751H38.7188C39.7543 25.8751 40.5938 25.0356 40.5938 24.0001Z" fill="#FF4BAC"/>
</g>
<defs>
<clipPath id="clip0_417_3">
<rect width="48" height="48" fill="white"/>
</clipPath>
</defs>
</svg>
