<svg width="48" height="48" viewBox="0 0 48 48" fill="none" xmlns="http://www.w3.org/2000/svg">
<g clip-path="url(#clip0_200_129)">
<path d="M7.5 24C7.5 12.7335 15.9212 3.43387 26.8125 2.05219C25.8915 1.93528 24.9528 1.875 24 1.875C11.7807 1.875 1.875 11.7807 1.875 24C1.875 36.2193 11.7807 46.125 24 46.125C24.9528 46.125 25.8915 46.0647 26.8125 45.9478C15.9212 44.5661 7.5 35.2665 7.5 24Z" fill="#CEE1F2"/>
<path d="M46.1248 12.8438C45.0892 12.8438 44.2498 12.0043 44.2498 10.9688V5.625C44.2498 4.59113 43.4087 3.75 42.3748 3.75H37.1248C36.0892 3.75 35.2498 2.91056 35.2498 1.875C35.2498 0.839438 36.0892 0 37.1248 0H42.3748C45.4764 0 47.9998 2.52338 47.9998 5.625V10.9688C47.9998 12.0043 47.1603 12.8438 46.1248 12.8438ZM16.6068 33.9508L40.8881 9.66956C41.6204 8.93728 41.6204 7.75012 40.8881 7.01794C40.1558 6.28575 38.9687 6.28566 38.2365 7.01794L13.9552 31.2992C13.2229 32.0315 13.2229 33.2186 13.9552 33.9508C14.3213 34.3169 14.8011 34.5 15.281 34.5C15.7609 34.5 16.2407 34.3169 16.6068 33.9508Z" fill="#FF4BAC"/>
<path d="M31.5 37.5938C28.3984 37.5938 25.875 35.0704 25.875 31.9688C25.875 28.8671 28.3984 26.3438 31.5 26.3438C34.6016 26.3438 37.125 28.8671 37.125 31.9688C37.125 35.0704 34.6016 37.5938 31.5 37.5938ZM31.5 30.0938C30.4661 30.0938 29.625 30.9349 29.625 31.9688C29.625 33.0026 30.4661 33.8438 31.5 33.8438C32.5339 33.8438 33.375 33.0026 33.375 31.9688C33.375 30.9349 32.5339 30.0938 31.5 30.0938ZM16.5 21.6562C13.3984 21.6562 10.875 19.1329 10.875 16.0312C10.875 12.9296 13.3984 10.4062 16.5 10.4062C19.6016 10.4062 22.125 12.9296 22.125 16.0312C22.125 19.1329 19.6016 21.6562 16.5 21.6562ZM16.5 14.1562C15.4661 14.1562 14.625 14.9974 14.625 16.0312C14.625 17.0651 15.4661 17.9062 16.5 17.9062C17.5339 17.9062 18.375 17.0651 18.375 16.0312C18.375 14.9974 17.5339 14.1562 16.5 14.1562ZM40.9706 40.9705C45.5035 36.4375 48 30.4106 48 24C48 21.9693 47.7456 19.951 47.2438 18.0014C46.9857 16.9985 45.9632 16.3946 44.9606 16.6529C43.9578 16.911 43.354 17.9333 43.6121 18.9361C44.0354 20.5806 44.25 22.2844 44.25 24C44.25 35.1659 35.1659 44.25 24 44.25C12.8341 44.25 3.75 35.1659 3.75 24C3.75 12.8341 12.8341 3.75 24 3.75C25.7432 3.75 27.4758 3.97247 29.1496 4.41122C30.1515 4.67362 31.1762 4.07456 31.4387 3.07284C31.7012 2.07113 31.102 1.04625 30.1003 0.78375C28.1164 0.263719 26.0639 0 24 0C17.5894 0 11.5625 2.49647 7.02938 7.02938C2.49647 11.5625 0 17.5894 0 24C0 30.4106 2.49647 36.4375 7.02938 40.9705C11.5625 45.5035 17.5894 48 24 48C30.4106 48 36.4375 45.5035 40.9706 40.9705Z" fill="#4E2DD8"/>
</g>
<defs>
<clipPath id="clip0_200_129">
<rect width="48" height="48" fill="white"/>
</clipPath>
</defs>
</svg>
