<svg width="48" height="48" viewBox="0 0 48 48" fill="none" xmlns="http://www.w3.org/2000/svg">
<g clip-path="url(#clip0_200_183)">
<path d="M1.875 11.2711V11.2755C1.875 14.0056 4.08816 16.2187 6.81825 16.2187H12.4432C9.71316 16.2187 7.5 14.0056 7.5 11.2755V11.2711C7.5 9.0548 8.97516 7.10939 11.1093 6.51136L11.1251 4.93045L5.48428 6.51126C3.35016 7.10939 1.875 9.0548 1.875 11.2711Z" fill="#CEE1F2"/>
<path d="M43.0145 4.7087L28.2451 0.586989C25.4366 -0.196759 22.4679 -0.195259 19.6604 0.59177L4.9783 4.70635C2.04712 5.52788 0 8.22759 0 11.2759C0 15.0355 3.05859 18.0941 6.81824 18.0941H41.1818C44.9413 18.0941 48 15.0355 48 11.2759C47.9999 8.22844 45.9499 5.52779 43.0145 4.7087ZM41.1818 14.3441H6.81824C5.12643 14.3441 3.74999 12.9677 3.74999 11.2716C3.74999 9.90178 4.67118 8.68687 5.99024 8.31713L20.6722 4.20245C21.748 3.90104 22.8546 3.75029 23.9612 3.75029C25.0633 3.75029 26.1655 3.89992 27.237 4.19889L42.0065 8.32059C43.3274 8.68931 44.2499 9.9045 44.2499 11.2759C44.2499 12.9677 42.8736 14.3441 41.1818 14.3441ZM27.7499 40.5003C26.7144 40.5003 25.8749 39.6609 25.8749 38.6253V23.5316C25.8749 22.496 26.7144 21.6566 27.7499 21.6566C28.7855 21.6566 29.6249 22.496 29.6249 23.5316V38.6253C29.6249 39.6609 28.7855 40.5003 27.7499 40.5003ZM20.1562 40.5003C19.1206 40.5003 18.2812 39.6609 18.2812 38.6253V23.5316C18.2812 22.496 19.1206 21.6566 20.1562 21.6566C21.1918 21.6566 22.0312 22.496 22.0312 23.5316V38.6253C22.0312 39.6609 21.1918 40.5003 20.1562 40.5003ZM5.15624 40.594C4.12068 40.594 3.28124 39.7546 3.28124 38.7191V23.5316C3.28124 22.496 4.12068 21.6566 5.15624 21.6566C6.1918 21.6566 7.03124 22.496 7.03124 23.5316V38.7191C7.03124 39.7546 6.1918 40.594 5.15624 40.594ZM12.75 40.5003C11.7144 40.5003 10.875 39.6609 10.875 38.6253V23.5316C10.875 22.496 11.7144 21.6566 12.75 21.6566C13.7855 21.6566 14.625 22.496 14.625 23.5316V38.6253C14.625 39.6609 13.7855 40.5003 12.75 40.5003ZM32.0624 46.1253C32.0624 47.1608 31.223 48.0003 30.1874 48.0003H1.875C0.839436 48.0003 0 47.1608 0 46.1253C0 45.0897 0.839436 44.2503 1.875 44.2503H30.1874C31.223 44.2503 32.0624 45.0897 32.0624 46.1253Z" fill="#4E2DD8"/>
<path d="M48 38.5854C48 40.217 47.3379 41.7538 46.1356 42.9123C45.2859 43.7312 44.2468 44.2842 43.125 44.5283V46.1251C43.125 47.1606 42.2856 48.0001 41.25 48.0001C40.2144 48.0001 39.375 47.1606 39.375 46.1251V44.3928C38.1248 44.1532 36.6586 43.7543 35.2136 43.18C34.2513 42.7974 33.7813 41.7073 34.1638 40.7449C34.5464 39.7826 35.6366 39.313 36.5988 39.6951C38.7247 40.5403 40.9202 40.9204 41.8001 40.9204C43.1281 40.9204 44.2499 39.8511 44.2499 38.5854C44.2499 37.2979 42.9306 36.2505 41.309 36.2505C39.3695 36.2505 37.6747 35.6691 36.408 34.5692C35.1172 33.4482 34.4062 31.8922 34.4062 30.1876C34.4062 27.0642 36.5695 24.5581 39.4688 24.1415V22.3126C39.4688 21.277 40.3082 20.4376 41.3438 20.4376C42.3793 20.4376 43.2188 21.277 43.2188 22.3126V24.3641C44.1582 24.5498 45.2557 24.8533 46.5233 25.3463C47.4885 25.7216 47.9666 26.8083 47.5913 27.7734C47.2159 28.7386 46.1293 29.2168 45.1642 28.8413C42.8603 27.9454 41.3688 27.8305 40.3268 27.8305C39.0893 27.8305 38.1562 28.8439 38.1562 30.1877C38.1562 31.5711 39.4233 32.5006 41.3091 32.5006C44.9985 32.5005 48 35.2302 48 38.5854ZM24 6.93759C22.7056 6.93759 21.6562 7.98693 21.6562 9.28134C21.6562 10.5757 22.7056 11.6251 24 11.6251C25.2944 11.6251 26.3438 10.5757 26.3438 9.28134C26.3438 7.98693 25.2944 6.93759 24 6.93759Z" fill="#FF4BAC"/>
</g>
<defs>
<clipPath id="clip0_200_183">
<rect width="48" height="48" fill="white"/>
</clipPath>
</defs>
</svg>
