<svg width="48" height="48" viewBox="0 0 48 48" fill="none" xmlns="http://www.w3.org/2000/svg">
<g clip-path="url(#clip0_200_213)">
<path d="M15.3778 36.7533V31.6765C15.3778 28.571 17.8954 26.0534 21.001 26.0534H15.1904C12.0848 26.0534 9.56726 28.571 9.56726 31.6765V36.7533C9.56726 41.9293 13.7632 46.1252 18.9391 46.1252H24.7497C19.5737 46.1252 15.3778 41.9292 15.3778 36.7533Z" fill="#CEE1F2"/>
<path d="M29.2483 48H18.9393C12.7381 48 7.693 42.9549 7.693 36.7537V31.677C7.693 27.5429 11.0564 24.1795 15.1905 24.1795H32.9971C37.1312 24.1795 40.4946 27.5429 40.4946 31.677V36.7537C40.4946 42.9549 35.4495 48 29.2483 48ZM15.1905 27.9282C13.1235 27.9282 11.4418 29.6099 11.4418 31.677V36.7537C11.4418 40.8879 14.8051 44.2512 18.9393 44.2512H29.2483C33.3825 44.2512 36.7459 40.8879 36.7459 36.7537V31.677C36.7459 29.6099 35.0642 27.9282 32.9971 27.9282H15.1905ZM40.4946 11.2463C40.4946 5.04507 35.4495 0 29.2483 0H18.9393C12.7381 0 7.693 5.04507 7.693 11.2463C7.693 12.2815 8.53216 13.1206 9.56738 13.1206C10.6026 13.1206 11.4418 12.2815 11.4418 11.2463C11.4418 7.11214 14.8051 3.74876 18.9393 3.74876H29.2483C33.3825 3.74876 36.7459 7.11214 36.7459 11.2463C36.7459 12.2815 37.585 13.1206 38.6202 13.1206C39.6555 13.1206 40.4946 12.2815 40.4946 11.2463ZM47.9921 34.5823V27.9282C47.9921 21.727 42.947 16.682 36.7459 16.682H11.2543C5.05313 16.682 0.00805664 21.727 0.00805664 27.9282V34.5823C0.00805664 35.6175 0.847216 36.4566 1.88243 36.4566C2.91765 36.4566 3.75681 35.6175 3.75681 34.5823V27.9282C3.75681 23.7941 7.12019 20.4307 11.2543 20.4307H36.7459C40.88 20.4307 44.2434 23.7941 44.2434 27.9282V34.5823C44.2434 35.6175 45.0825 36.4566 46.1177 36.4566C47.153 36.4566 47.9921 35.6175 47.9921 34.5823Z" fill="#4E2DD8"/>
<path d="M28.2266 40.5072C26.8425 40.5072 25.4309 39.968 24.1327 38.9413C24.1246 38.9349 24.1166 38.9285 24.1087 38.922L21.2589 36.5912C20.1814 35.7471 18.6638 35.7981 17.6453 36.7142C16.8756 37.4065 15.6905 37.3438 14.9982 36.574C14.306 35.8043 14.3688 34.6193 15.1385 33.927C17.5229 31.7825 21.0794 31.6697 23.5948 33.6591C23.6029 33.6655 23.6108 33.6719 23.6188 33.6784L26.4694 36.0099C27.8243 37.0764 28.8865 37.0014 30.0198 35.7603C30.7177 34.9957 31.9034 34.9418 32.6678 35.6399C33.4323 36.3379 33.4862 37.5235 32.7882 38.288C31.1757 40.054 29.5119 40.4681 28.4001 40.5044C28.3423 40.5062 28.2845 40.5072 28.2266 40.5072Z" fill="#FF4BAC"/>
</g>
<defs>
<clipPath id="clip0_200_213">
<rect width="48" height="48" fill="white"/>
</clipPath>
</defs>
</svg>
