<svg width="48" height="48" viewBox="0 0 48 48" fill="none" xmlns="http://www.w3.org/2000/svg">
<path d="M7.5 36.7502V26.4896C7.5 25.3972 7.99022 24.4888 8.72034 23.8896L7.26506 22.799C6.69441 22.3743 6.06225 22.1628 5.4375 22.1299C3.62475 22.0345 1.875 23.4423 1.875 25.5064V36.7502C1.875 41.9278 6.07228 46.1252 11.25 46.1252H16.875C11.6973 46.1252 7.5 41.9278 7.5 36.7502Z" fill="#CEE1F2"/>
<path d="M36.75 48H11.25C5.04675 48 0 42.9533 0 36.75V25.5061C0 24.0484 0.575813 22.6994 1.62141 21.7073C2.67263 20.71 4.09894 20.1822 5.53612 20.257C6.56016 20.3109 7.54519 20.6696 8.38462 21.2944L19.4391 29.5786C19.4433 29.5818 19.4475 29.585 19.4517 29.5882C22.1298 31.6308 25.8703 31.6308 28.5484 29.5882C28.5526 29.5851 28.5568 29.5819 28.561 29.5786L39.6105 21.298C40.4549 20.6696 41.4399 20.3109 42.4641 20.257C43.8993 20.1817 45.3273 20.7099 46.3787 21.7073C47.4242 22.6994 48 24.0485 48 25.5061V36.75C48 42.9533 42.9533 48 36.75 48ZM5.26547 24.0001C4.88053 24.0001 4.48791 24.157 4.20234 24.428C3.996 24.6237 3.75 24.9697 3.75 25.5061V36.75C3.75 40.8855 7.1145 44.25 11.25 44.25H36.75C40.8855 44.25 44.25 40.8855 44.25 36.75V25.5061C44.25 24.9697 44.004 24.6237 43.7977 24.428C43.4939 24.1397 43.071 23.9808 42.6611 24.002C42.3737 24.0171 42.1023 24.1182 41.8545 24.3027L30.8161 32.5749C26.8017 35.6322 21.1985 35.6322 17.1841 32.5749L6.14062 24.2991C5.89772 24.1182 5.62641 24.0171 5.33897 24.002C5.3145 24.0007 5.29003 24.0001 5.26547 24.0001ZM43.5 14.7188V11.25C43.5 5.04675 38.4533 0 32.25 0H15.9375C9.73425 0 4.6875 5.04675 4.6875 11.25V14.7188C4.6875 15.7543 5.52694 16.5938 6.5625 16.5938C7.59806 16.5938 8.4375 15.7543 8.4375 14.7188V11.25C8.4375 7.1145 11.802 3.75 15.9375 3.75H32.25C36.3855 3.75 39.75 7.1145 39.75 11.25V14.7188C39.75 15.7543 40.5894 16.5938 41.625 16.5938C42.6606 16.5938 43.5 15.7543 43.5 14.7188Z" fill="#4E2DD8"/>
<path d="M26.8125 22.125H16.6875C15.6519 22.125 14.8125 21.2856 14.8125 20.25C14.8125 19.2144 15.6519 18.375 16.6875 18.375H26.8125C27.8481 18.375 28.6875 19.2144 28.6875 20.25C28.6875 21.2856 27.8481 22.125 26.8125 22.125ZM33.375 13.0312C33.375 11.9957 32.5356 11.1562 31.5 11.1562H16.6875C15.6519 11.1562 14.8125 11.9957 14.8125 13.0312C14.8125 14.0668 15.6519 14.9062 16.6875 14.9062H31.5C32.5356 14.9062 33.375 14.0668 33.375 13.0312Z" fill="#FF4BAC"/>
</svg>
