<svg width="48" height="48" viewBox="0 0 48 48" fill="none" xmlns="http://www.w3.org/2000/svg">
<g clip-path="url(#clip0_200_134)">
<path d="M16.6542 5.9846L13.3662 5.51919C11.6359 5.27431 10.0233 6.44672 9.72131 8.16906L9.14757 11.442C8.97494 12.4269 8.35772 13.2769 7.4749 13.7456L4.54153 15.303C2.99782 16.1226 2.38191 18.0196 3.14936 19.5906L4.6077 22.5759C5.04658 23.4743 5.04658 24.525 4.6077 25.4234L3.14936 28.4087C2.38191 29.9797 2.99791 31.8767 4.54153 32.6963L7.4749 34.2537C8.35762 34.7224 8.97484 35.5725 9.14757 36.5573L9.72131 39.8302C10.0233 41.5526 11.6359 42.725 13.3662 42.4801L16.6542 42.0147C16.8587 41.9857 17.0636 41.9778 17.2664 41.9877L17.4396 40.1698C16.2453 40.3388 15.1321 39.5296 14.9237 38.3407L13.7478 32.6678C13.6286 31.9879 13.2025 31.4011 12.5932 31.0776L10.5684 30.0025C9.50285 29.4368 9.07765 28.1273 9.60744 27.0429L10.6141 24.9823C10.917 24.3621 10.917 23.6369 10.6141 23.0167L9.60744 20.9561C9.07765 19.8717 9.50285 18.5622 10.5684 17.9965L12.5932 16.9214C13.2025 16.5979 13.6286 16.0112 13.7478 15.3312L14.8785 9.6154C15.0869 8.4265 16.2 7.61725 17.3944 7.78632L17.6152 5.97541C17.3005 6.02564 16.9769 6.03024 16.6542 5.9846Z" fill="#CEE1F2"/>
<path d="M23.9999 48.0001C22.7203 48.0001 21.4406 47.5176 20.4436 46.5524L18.0569 44.242C17.7522 43.9469 17.337 43.8119 16.9168 43.8712L13.6289 44.3366C13.3824 44.3715 13.1374 44.3884 12.8958 44.3884C10.4445 44.3885 8.31146 42.6431 7.8752 40.1545L7.30146 36.8816C7.22808 36.463 6.97101 36.1088 6.59605 35.9097L3.66269 34.3524C1.21254 33.0515 0.247432 30.0796 1.46529 27.5866L2.92363 24.6013C3.11022 24.2193 3.11022 23.7812 2.92363 23.3993L1.46529 20.4139C0.247432 17.9208 1.21263 14.9489 3.66269 13.6481L6.59614 12.0907C6.97101 11.8917 7.22818 11.5375 7.30146 11.1189L7.8752 7.84599C8.35447 5.11206 10.882 3.2751 13.6289 3.66384L16.9169 4.12924C17.3366 4.18875 17.7522 4.05352 18.0569 3.7585L20.4436 1.44808C22.4378 -0.482413 25.5621 -0.482319 27.5562 1.44808L29.9428 3.7585C30.2476 4.05352 30.6629 4.18885 31.0829 4.12924L34.3708 3.66384C37.118 3.27529 39.6452 5.11206 40.1245 7.84599L40.6983 11.1189C40.7717 11.5374 41.0287 11.8917 41.4036 12.0907L44.337 13.648C46.7871 14.9489 47.7523 17.9209 46.5344 20.4139L45.0761 23.3992C44.8894 23.7812 44.8894 24.2193 45.0761 24.6012L46.5345 27.5866C47.7524 30.0795 46.7872 33.0514 44.3371 34.3523L41.4036 35.9097C41.0287 36.1088 40.7716 36.4629 40.6983 36.8816L40.1245 40.1545C39.6453 42.8884 37.1176 44.7255 34.3708 44.3366L31.0829 43.8712C30.6632 43.8118 30.2476 43.9469 29.9429 44.242L27.5562 46.5524C26.5591 47.5175 25.2795 48.0001 23.9999 48.0001ZM17.12 40.1079C18.4375 40.1079 19.6992 40.6142 20.6644 41.5485L23.051 43.8589C23.5832 44.374 24.4168 44.3741 24.949 43.8589L27.3356 41.5486C28.4774 40.4432 30.0347 39.9366 31.6082 40.1595L34.8962 40.6249C35.629 40.7282 36.3042 40.2378 36.4323 39.5073L37.006 36.2344C37.2804 34.6689 38.2426 33.3438 39.6459 32.5988L42.5793 31.0414C43.2342 30.6937 43.492 29.899 43.1662 29.2321L41.7079 26.2467C41.0105 24.8191 41.0105 23.1814 41.7079 21.7538L43.1662 18.7685C43.492 18.1016 43.2341 17.3068 42.5792 16.9591L39.6458 15.4018C38.2425 14.6567 37.2803 13.3316 37.0059 11.7662L36.4322 8.4933C36.3042 7.76277 35.6293 7.27169 34.8961 7.37562L31.6082 7.84102C30.0347 8.06332 28.4774 7.55734 27.3355 6.45194L24.9489 4.14152C24.4166 3.62635 23.583 3.62635 23.0508 4.14152L20.6642 6.45185C19.5222 7.55725 17.9648 8.06369 16.3915 7.84093L13.1035 7.37553C12.3701 7.27197 11.6956 7.76267 11.5676 8.4932L10.9938 11.7661C10.7194 13.3316 9.75724 14.6566 8.354 15.4017L5.42055 16.9591C4.76565 17.3068 4.50774 18.1015 4.8335 18.7684L6.29184 21.7537C6.98929 23.1813 6.98929 24.819 6.29184 26.2467L4.8335 29.232C4.50774 29.8989 4.76556 30.6936 5.42055 31.0414L8.35391 32.5987C9.75724 33.3438 10.7194 34.6689 10.9938 36.2343L11.5676 39.5072C11.6956 40.2376 12.3701 40.7292 13.1035 40.6248L16.3915 40.1594C16.6352 40.125 16.8786 40.1079 17.12 40.1079Z" fill="#4E2DD8"/>
<path d="M24.0937 28.0305C23.0585 28.0305 22.2193 27.1913 22.2193 26.1561V14.7226C22.2193 13.6874 23.0585 12.8482 24.0937 12.8482C25.1289 12.8482 25.968 13.6874 25.968 14.7226V26.1561C25.968 27.1912 25.1289 28.0305 24.0937 28.0305ZM24.0937 35.4342C25.3876 35.4342 26.4366 34.3852 26.4366 33.0912C26.4366 31.7973 25.3876 30.7483 24.0937 30.7483C22.7997 30.7483 21.7507 31.7973 21.7507 33.0912C21.7507 34.3852 22.7997 35.4342 24.0937 35.4342Z" fill="#FF4BAC"/>
</g>
<defs>
<clipPath id="clip0_200_134">
<rect width="48" height="48" fill="white"/>
</clipPath>
</defs>
</svg>
