<svg width="48" height="48" viewBox="0 0 48 48" fill="none" xmlns="http://www.w3.org/2000/svg">
<g clip-path="url(#clip0_200_173)">
<path d="M27.7502 42.375V42.2903C27.7502 42.1757 27.7577 42.0624 27.7688 41.95C27.1899 41.4271 26.5021 41.0224 25.743 40.7752C25.5223 39.4936 25.0283 38.2731 24.283 37.1841C23.2464 35.6696 21.7948 34.5143 20.0847 33.8426C19.0821 33.4491 18.1461 32.9037 17.3026 32.222C16.0035 31.1718 14.4626 30.5032 12.8208 30.2727C13.4703 28.7551 13.6921 27.1031 13.4625 25.4622C13.3941 24.974 13.3595 24.4742 13.3595 23.9766C13.3595 23.4581 13.3972 22.9372 13.4715 22.4288C13.7117 20.7883 13.5005 19.1355 12.8608 17.6129C14.4668 17.397 16.0237 16.7494 17.3612 15.6838C18.1881 15.025 19.1031 14.4961 20.0806 14.1118C21.7886 13.4405 23.2393 12.2873 24.2762 10.777C25.0156 9.70013 25.5086 8.49431 25.7341 7.22766C26.4989 6.98006 27.1915 6.57281 27.7737 6.04575C27.7597 5.91937 27.7502 5.79197 27.7502 5.66269V5.625C27.7502 3.55397 26.0712 1.875 24.0001 1.875C21.9291 1.875 20.2501 3.55397 20.2501 5.625C20.2501 7.06491 19.3628 8.35012 18.0227 8.87691C16.5096 9.47175 15.1077 10.2875 13.8563 11.2843C12.7326 12.1795 11.1845 12.3188 9.9353 11.6093L9.82777 11.5483C8.0212 10.5305 5.72836 11.164 4.70658 12.9637C3.6847 14.7632 4.32079 17.0472 6.12736 18.0652L6.15755 18.0823C7.40705 18.792 8.11402 20.1924 7.90589 21.6143C7.79302 22.3854 7.73452 23.1742 7.73452 23.9767C7.73452 24.7454 7.78814 25.5016 7.89173 26.2417C8.08861 27.6482 7.3913 29.0297 6.15633 29.731L6.12736 29.7474C4.32079 30.7654 3.6847 33.0494 4.70658 34.849C5.72845 36.6486 8.0212 37.2823 9.82777 36.2644L9.83311 36.2613C11.0875 35.5489 12.6447 35.6898 13.7665 36.5966C15.0421 37.6278 16.477 38.4694 18.0287 39.0788C19.3667 39.6041 20.2501 40.8907 20.2501 42.3281V42.375C20.2501 44.446 21.9291 46.125 24.0001 46.125C26.0712 46.125 27.7502 44.446 27.7502 42.375Z" fill="#CEE1F2"/>
<path d="M24.0001 48C20.8984 48 18.3751 45.4766 18.3751 42.375V42.328C18.3751 41.6604 17.9702 41.07 17.3434 40.8239C15.6271 40.15 14.0271 39.2183 12.5877 38.0547C12.0574 37.6261 11.3396 37.5619 10.759 37.8916C10.7571 37.8926 10.7499 37.8968 10.748 37.8978C8.04681 39.42 4.60497 38.4675 3.076 35.7747C2.33463 34.4692 2.14722 32.9536 2.54838 31.5074C2.95038 30.0584 3.89444 28.8533 5.20675 28.1138L5.23009 28.1005C5.79991 27.7769 6.12316 27.1343 6.03466 26.5014C5.91831 25.67 5.85934 24.8205 5.85934 23.9765C5.85934 23.0959 5.92366 22.2098 6.0505 21.3428C6.14463 20.6993 5.81547 20.0443 5.23141 19.7126L5.20075 19.6952C3.89444 18.9592 2.95038 17.754 2.54838 16.305C2.14722 14.8588 2.33463 13.3433 3.076 12.0377C4.60506 9.34481 8.04691 8.39269 10.748 9.91463L10.8608 9.97866C11.4372 10.306 12.1542 10.2428 12.6877 9.81778C14.0994 8.69316 15.6634 7.7895 17.3365 7.13184C17.9674 6.88387 18.3751 6.29241 18.3751 5.625C18.3751 2.52338 20.8984 0 24.0001 0C27.1017 0 29.6251 2.52338 29.6251 5.625V5.66269C29.6251 6.32644 30.0295 6.91669 30.6556 7.16653C32.3103 7.82681 33.8571 8.72822 35.2529 9.84562C35.7875 10.2737 36.5056 10.3387 37.0821 10.0113L37.2465 9.91791C39.9534 8.39278 43.3951 9.34509 44.9241 12.0379C45.6655 13.3434 45.8529 14.8589 45.4518 16.3051C45.0498 17.7541 44.1057 18.9592 42.7933 19.6987L42.6647 19.7717C42.0921 20.0969 41.7686 20.7394 41.86 21.3704C41.9841 22.2285 42.047 23.1052 42.047 23.9766C42.047 24.804 41.9904 25.6368 41.8788 26.452C41.7919 27.0861 42.1152 27.7286 42.6829 28.0511L42.7962 28.1154C44.107 28.855 45.05 30.0595 45.4518 31.5074C45.8529 32.9536 45.6655 34.4692 44.9241 35.7748C43.3952 38.4675 39.9534 39.42 37.2521 37.8979L37.1867 37.8608C36.6044 37.5301 35.8826 37.5973 35.3473 38.0317C33.925 39.186 32.3443 40.1138 30.649 40.7894C30.027 41.0372 29.6251 41.6264 29.6251 42.2903V42.375C29.6251 45.4766 27.1017 48 24.0001 48ZM11.5528 33.928C12.7567 33.928 13.9537 34.337 14.9451 35.1383C16.0865 36.061 17.3545 36.7995 18.7141 37.3334C20.7862 38.147 22.1251 40.1075 22.1251 42.328V42.375C22.1251 43.4089 22.9662 44.25 24.0001 44.25C25.0339 44.25 25.8751 43.4089 25.8751 42.375V42.2903C25.8751 40.082 27.204 38.1254 29.2606 37.3058C30.6035 36.7705 31.8563 36.0351 32.9841 35.1199C34.7271 33.7052 37.1033 33.5009 39.0379 34.5996L39.0977 34.6335C39.999 35.1412 41.1518 34.8238 41.6631 33.9231C41.9088 33.4904 41.9709 32.9886 41.8381 32.5099C41.7046 32.0285 41.39 31.6275 40.9524 31.3809C40.9504 31.3799 40.9487 31.3789 40.9467 31.3778L40.8309 31.3119C38.9129 30.2227 37.8658 28.1152 38.1634 25.9432C38.2519 25.2961 38.2969 24.6344 38.2969 23.9766C38.2969 23.2843 38.2471 22.5882 38.1485 21.9075C37.8379 19.7612 38.9085 17.5925 40.8127 16.511L40.9469 16.4348C41.3901 16.1851 41.7047 15.7842 41.8382 15.3027C41.971 14.824 41.9088 14.3222 41.6632 13.8896C41.1518 12.9889 39.9987 12.6717 39.0929 13.1819L38.9341 13.2722C37.0142 14.3623 34.6497 14.1664 32.9093 12.7732C31.8026 11.8871 30.5768 11.1727 29.2659 10.6495C27.206 9.82763 25.8751 7.87012 25.8751 5.66269V5.625C25.8751 4.59113 25.0339 3.75 24.0001 3.75C22.9662 3.75 22.1251 4.59113 22.1251 5.625C22.1251 7.84462 20.784 9.80606 18.7086 10.6219C17.3833 11.1428 16.1439 11.8592 15.0245 12.7508C13.2862 14.1358 10.9251 14.3277 9.00935 13.2397L8.90209 13.1789C8.00135 12.6714 6.8485 12.9888 6.337 13.8894C6.09138 14.3221 6.02922 14.8239 6.16197 15.3026C6.29556 15.784 6.6101 16.185 7.04772 16.4316L7.084 16.4521C9.00128 17.541 10.0774 19.7247 9.76113 21.8857C9.66053 22.5734 9.60953 23.2769 9.60953 23.9765C9.60953 24.6472 9.65631 25.322 9.74866 25.9818C10.053 28.1569 9.00644 30.2685 7.08231 31.3612L7.05344 31.3776C6.61019 31.6274 6.29566 32.0283 6.16206 32.5098C6.02922 32.9885 6.09138 33.4903 6.337 33.9229C6.84831 34.8234 8.00125 35.1409 8.90734 34.6306C9.73638 34.1599 10.6465 33.928 11.5528 33.928Z" fill="#4E2DD8"/>
<path d="M24 33.8438C18.5722 33.8438 14.1562 29.4278 14.1562 24C14.1562 18.5722 18.5722 14.1562 24 14.1562C29.4278 14.1562 33.8438 18.5722 33.8438 24C33.8438 29.4278 29.4278 33.8438 24 33.8438ZM24 17.9062C20.6399 17.9062 17.9062 20.6399 17.9062 24C17.9062 27.3601 20.6399 30.0938 24 30.0938C27.3601 30.0938 30.0938 27.3601 30.0938 24C30.0938 20.6399 27.3601 17.9062 24 17.9062Z" fill="#FF4BAC"/>
</g>
<defs>
<clipPath id="clip0_200_173">
<rect width="48" height="48" fill="white"/>
</clipPath>
</defs>
</svg>
