<svg width="48" height="48" viewBox="0 0 48 48" fill="none" xmlns="http://www.w3.org/2000/svg">
<g opacity="0.8">
<path opacity="0.8" d="M18.6788 12.6562C18.6788 7.86347 21.8065 3.80194 26.132 2.39934C25.0837 2.0595 23.9654 1.875 22.8038 1.875C16.8495 1.875 12.0226 6.70191 12.0226 12.6562C12.0226 18.6106 16.8495 23.4375 22.8038 23.4375C23.9654 23.4375 25.0837 23.253 26.132 22.9132C21.8065 21.5106 18.6788 17.449 18.6788 12.6562Z" fill="#C2D9EF"/>
</g>
<path d="M40.5938 48C39.5582 48 38.7188 47.1606 38.7188 46.125C38.7188 38.7845 32.7468 32.8125 25.4062 32.8125H22.5938C15.2532 32.8125 9.28125 38.7845 9.28125 46.125C9.28125 47.1606 8.44181 48 7.40625 48C6.37069 48 5.53125 47.1606 5.53125 46.125C5.53125 36.7167 13.1855 29.0625 22.5938 29.0625H25.4062C34.8145 29.0625 42.4688 36.7167 42.4688 46.125C42.4688 47.1606 41.6293 48 40.5938 48Z" fill="#FF4BAC"/>
<path d="M23.8125 25.3125C16.8338 25.3125 11.1562 19.6349 11.1562 12.6562C11.1562 5.67759 16.8338 0 23.8125 0C30.7912 0 36.4688 5.67759 36.4688 12.6562C36.4688 19.6349 30.7912 25.3125 23.8125 25.3125ZM23.8125 3.75C18.9016 3.75 14.9062 7.74534 14.9062 12.6562C14.9062 17.5672 18.9016 21.5625 23.8125 21.5625C28.7234 21.5625 32.7188 17.5672 32.7188 12.6562C32.7188 7.74534 28.7234 3.75 23.8125 3.75Z" fill="#4E2DD8"/>
</svg>
