<svg width="48" height="48" viewBox="0 0 48 48" fill="none" xmlns="http://www.w3.org/2000/svg">
<g clip-path="url(#clip0_200_143)">
<path d="M7.5 24C7.5 12.7335 15.9212 3.43387 26.8125 2.05219C25.8914 1.93528 24.9528 1.875 24 1.875C11.7807 1.875 1.875 11.7807 1.875 24C1.875 36.2193 11.7807 46.125 24 46.125C24.9528 46.125 25.8914 46.0647 26.8125 45.9478C15.9212 44.5661 7.5 35.2665 7.5 24Z" fill="#CEE1F2"/>
<path d="M40.5 24C40.5 25.0356 39.6606 25.875 38.625 25.875H34.0012C33.9761 26.7082 33.9364 27.5367 33.8783 28.3519C33.808 29.3395 32.9849 30.0938 32.01 30.0938C31.9653 30.0938 31.9202 30.0923 31.8749 30.089C30.842 30.0155 30.0643 29.1185 30.1378 28.0856C30.1897 27.358 30.2262 26.6188 30.25 25.875H17.7702C18.0239 30.6199 19.1776 34.8238 20.0714 37.6922C20.3795 38.6809 19.8277 39.7321 18.8391 40.0402C18.6534 40.098 18.4655 40.1255 18.2807 40.1255C17.4818 40.1255 16.7413 39.6108 16.4911 38.8078C15.5223 35.6985 14.2687 31.1152 14.0153 25.875H9.375C8.33944 25.875 7.5 25.0356 7.5 24C7.5 22.9644 8.33944 22.125 9.375 22.125H14.0156C14.2706 16.8855 15.5318 12.3003 16.5066 9.18937C16.8162 8.20116 17.8684 7.65084 18.8564 7.96088C19.8446 8.27053 20.3947 9.3225 20.085 10.3107C19.186 13.1796 18.0258 17.3833 17.7705 22.1251H30.2342C30.0528 18.3521 29.3258 14.468 28.0232 10.3107C27.7135 9.3225 28.2636 8.27044 29.2518 7.96088C30.2401 7.65112 31.292 8.20134 31.6016 9.18937C33.0219 13.7222 33.8073 17.9735 33.9892 22.125H38.625C39.6606 22.125 40.5 22.9644 40.5 24ZM40.9706 7.02938C36.4375 2.49647 30.4106 0 24 0C17.5894 0 11.5625 2.49647 7.02938 7.02938C2.49647 11.5624 0 17.5894 0 24C0 30.4106 2.49647 36.4376 7.02938 40.9706C11.5625 45.5035 17.5894 48 24 48C25.018 48 26.0437 47.9354 27.0485 47.8079C28.0758 47.6776 28.8029 46.7393 28.6726 45.7119C28.5423 44.6846 27.6037 43.9575 26.5766 44.0878C25.7277 44.1954 24.8608 44.25 24 44.25C12.8341 44.25 3.75 35.1659 3.75 24C3.75 12.8341 12.8341 3.75 24 3.75C35.1659 3.75 44.25 12.8341 44.25 24C44.25 24.8283 44.1985 25.6674 44.0971 26.4942C43.971 27.522 44.702 28.4574 45.7298 28.5836C46.7576 28.71 47.6931 27.9787 47.8192 26.951C47.9392 25.9732 48 24.9803 48 23.9999C48 17.5894 45.5035 11.5624 40.9706 7.02938Z" fill="#4E2DD8"/>
<path d="M33.4688 44.25C32.4332 44.25 31.5938 43.4106 31.5938 42.375V37.125C31.5938 34.0234 34.1171 31.5 37.2188 31.5H42.5625C43.5981 31.5 44.4375 32.3394 44.4375 33.375C44.4375 34.4106 43.5981 35.25 42.5625 35.25H37.2188C36.1849 35.25 35.3438 36.0911 35.3438 37.125V42.375C35.3438 43.4106 34.5043 44.25 33.4688 44.25ZM47.4508 47.4509C48.1831 46.7186 48.1831 45.5314 47.4508 44.7992L41.2633 38.6117C40.531 37.8794 39.3439 37.8794 38.6117 38.6117C37.8795 39.344 37.8794 40.5312 38.6117 41.2634L44.7992 47.4509C45.1653 47.817 45.6451 48 46.125 48C46.6049 48 47.0847 47.817 47.4508 47.4509Z" fill="#FF4BAC"/>
</g>
<defs>
<clipPath id="clip0_200_143">
<rect width="48" height="48" fill="white"/>
</clipPath>
</defs>
</svg>
