<svg width="48" height="48" viewBox="0 0 48 48" fill="none" xmlns="http://www.w3.org/2000/svg">
<g clip-path="url(#clip0_200_198)">
<path d="M43.875 37.772C43.0705 38.3106 42.1033 38.625 41.0625 38.625C38.2666 38.625 36 36.3584 36 33.5625V17.25C36 14.4541 38.2666 12.1875 41.0625 12.1875C42.1033 12.1875 43.0705 12.5019 43.875 13.0405C42.5184 13.9488 41.625 15.4949 41.625 17.25V33.5625C41.625 35.3176 42.5184 36.8637 43.875 37.772ZM7.5 33.5625V28.5C7.5 26.7449 8.39344 25.1988 9.75 24.2905C8.94553 23.7519 7.97831 23.4375 6.9375 23.4375C4.14159 23.4375 1.875 25.7041 1.875 28.5V33.5625C1.875 36.3584 4.14159 38.625 6.9375 38.625C7.97831 38.625 8.94553 38.3106 9.75 37.772C8.39344 36.8637 7.5 35.3176 7.5 33.5625ZM24.5625 33.5625V6.9375C24.5625 5.18241 25.4559 3.63628 26.8125 2.72803C26.008 2.18944 25.0408 1.875 24 1.875C21.2041 1.875 18.9375 4.14159 18.9375 6.9375V33.5625C18.9375 36.3584 21.2041 38.625 24 38.625C25.0408 38.625 26.008 38.3106 26.8125 37.772C25.4559 36.8637 24.5625 35.3176 24.5625 33.5625Z" fill="#CEE1F2"/>
<path d="M41.0625 40.5C37.2371 40.5 34.125 37.3879 34.125 33.5625V17.25C34.125 13.4246 37.2371 10.3125 41.0625 10.3125C44.8879 10.3125 48 13.4246 48 17.25V33.5625C48 37.3879 44.8879 40.5 41.0625 40.5ZM41.0625 14.0625C39.3049 14.0625 37.875 15.4924 37.875 17.25V33.5625C37.875 35.3201 39.3049 36.75 41.0625 36.75C42.8201 36.75 44.25 35.3201 44.25 33.5625V17.25C44.25 15.4924 42.8201 14.0625 41.0625 14.0625ZM6.9375 40.5C3.11212 40.5 0 37.3879 0 33.5625V28.5C0 24.6746 3.11212 21.5625 6.9375 21.5625C10.7629 21.5625 13.875 24.6746 13.875 28.5V33.5625C13.875 37.3879 10.7629 40.5 6.9375 40.5ZM6.9375 25.3125C5.17987 25.3125 3.75 26.7424 3.75 28.5V33.5625C3.75 35.3201 5.17987 36.75 6.9375 36.75C8.69512 36.75 10.125 35.3201 10.125 33.5625V28.5C10.125 26.7424 8.69512 25.3125 6.9375 25.3125ZM24 40.5C20.1746 40.5 17.0625 37.3879 17.0625 33.5625V6.9375C17.0625 3.11212 20.1746 0 24 0C27.8254 0 30.9375 3.11212 30.9375 6.9375V33.5625C30.9375 37.3879 27.8254 40.5 24 40.5ZM24 3.75C22.2424 3.75 20.8125 5.17987 20.8125 6.9375V33.5625C20.8125 35.3201 22.2424 36.75 24 36.75C25.7576 36.75 27.1875 35.3201 27.1875 33.5625V6.9375C27.1875 5.17987 25.7576 3.75 24 3.75Z" fill="#4E2DD8"/>
<path d="M46.125 48H1.875C0.839438 48 0 47.1606 0 46.125C0 45.0894 0.839438 44.25 1.875 44.25H46.125C47.1606 44.25 48 45.0894 48 46.125C48 47.1606 47.1606 48 46.125 48Z" fill="#FF4BAC"/>
</g>
<defs>
<clipPath id="clip0_200_198">
<rect width="48" height="48" fill="white"/>
</clipPath>
</defs>
</svg>
